<mxfile host="Electron" modified="2024-01-30T10:22:20.810Z" agent="Mozilla/5.0 (X11; Linux x86_64) AppleWebKit/537.36 (KHTML, like Gecko) draw.io/22.1.21 Chrome/120.0.6099.109 Electron/28.1.0 Safari/537.36" etag="RLrwp8bXht3ntWx_8Ot8" version="22.1.21" type="device">
  <diagram name="Page-1" id="xJV4w2_0PXOz6v05_g0c">
    <mxGraphModel dx="1390" dy="789" grid="1" gridSize="10" guides="1" tooltips="1" connect="1" arrows="1" fold="1" page="1" pageScale="1" pageWidth="827" pageHeight="1169" math="0" shadow="0">
      <root>
        <mxCell id="0" />
        <mxCell id="1" parent="0" />
        <mxCell id="t80iUdr_SIEupjNzdLTd-7" style="edgeStyle=orthogonalEdgeStyle;rounded=0;orthogonalLoop=1;jettySize=auto;html=1;exitX=0.5;exitY=1;exitDx=0;exitDy=0;" parent="1" source="t80iUdr_SIEupjNzdLTd-2" target="t80iUdr_SIEupjNzdLTd-33" edge="1">
          <mxGeometry relative="1" as="geometry">
            <mxPoint x="340" y="190" as="targetPoint" />
          </mxGeometry>
        </mxCell>
        <mxCell id="t80iUdr_SIEupjNzdLTd-2" value="Garmin Livetrack mail (IMAP integration)" style="rounded=1;whiteSpace=wrap;html=1;fontSize=10;" parent="1" vertex="1">
          <mxGeometry x="170" y="80" width="120" height="60" as="geometry" />
        </mxCell>
        <mxCell id="t80iUdr_SIEupjNzdLTd-8" style="edgeStyle=orthogonalEdgeStyle;rounded=0;orthogonalLoop=1;jettySize=auto;html=1;exitX=0.5;exitY=1;exitDx=0;exitDy=0;entryX=0.75;entryY=0;entryDx=0;entryDy=0;" parent="1" source="t80iUdr_SIEupjNzdLTd-3" target="t80iUdr_SIEupjNzdLTd-33" edge="1">
          <mxGeometry relative="1" as="geometry">
            <mxPoint x="365" y="190" as="targetPoint" />
          </mxGeometry>
        </mxCell>
        <mxCell id="t80iUdr_SIEupjNzdLTd-3" value="Manually entered&lt;br style=&quot;font-size: 10px;&quot;&gt;(input_text.livetrack_url)" style="rounded=1;whiteSpace=wrap;html=1;fontSize=10;" parent="1" vertex="1">
          <mxGeometry x="414" y="80" width="120" height="60" as="geometry" />
        </mxCell>
        <mxCell id="t80iUdr_SIEupjNzdLTd-11" style="edgeStyle=orthogonalEdgeStyle;rounded=0;orthogonalLoop=1;jettySize=auto;html=1;" parent="1" source="t80iUdr_SIEupjNzdLTd-33" target="t80iUdr_SIEupjNzdLTd-9" edge="1">
          <mxGeometry relative="1" as="geometry">
            <mxPoint x="315" y="270" as="sourcePoint" />
          </mxGeometry>
        </mxCell>
        <mxCell id="t80iUdr_SIEupjNzdLTd-24" style="rounded=0;orthogonalLoop=1;jettySize=auto;html=1;exitX=0.5;exitY=1;exitDx=0;exitDy=0;dashed=1;fillColor=#1ba1e2;strokeColor=#006EAF;dashPattern=8 8;entryX=1;entryY=0.25;entryDx=0;entryDy=0;" parent="1" source="t80iUdr_SIEupjNzdLTd-33" target="t80iUdr_SIEupjNzdLTd-9" edge="1">
          <mxGeometry relative="1" as="geometry">
            <mxPoint x="349.70000000000005" y="269.68000000000006" as="sourcePoint" />
          </mxGeometry>
        </mxCell>
        <mxCell id="t80iUdr_SIEupjNzdLTd-26" style="rounded=0;orthogonalLoop=1;jettySize=auto;html=1;entryX=1;entryY=0;entryDx=0;entryDy=0;fillColor=#1ba1e2;strokeColor=#006EAF;dashed=1;dashPattern=8 8;exitX=0.336;exitY=0.99;exitDx=0;exitDy=0;exitPerimeter=0;" parent="1" source="t80iUdr_SIEupjNzdLTd-34" target="t80iUdr_SIEupjNzdLTd-14" edge="1">
          <mxGeometry relative="1" as="geometry" />
        </mxCell>
        <mxCell id="t80iUdr_SIEupjNzdLTd-27" style="rounded=0;orthogonalLoop=1;jettySize=auto;html=1;exitX=0.75;exitY=1;exitDx=0;exitDy=0;entryX=0.25;entryY=0;entryDx=0;entryDy=0;fillColor=#1ba1e2;strokeColor=#006EAF;dashed=1;dashPattern=8 8;" parent="1" source="t80iUdr_SIEupjNzdLTd-34" target="t80iUdr_SIEupjNzdLTd-15" edge="1">
          <mxGeometry relative="1" as="geometry" />
        </mxCell>
        <mxCell id="t80iUdr_SIEupjNzdLTd-13" style="edgeStyle=orthogonalEdgeStyle;rounded=0;orthogonalLoop=1;jettySize=auto;html=1;exitX=1;exitY=0.5;exitDx=0;exitDy=0;" parent="1" source="t80iUdr_SIEupjNzdLTd-9" target="t80iUdr_SIEupjNzdLTd-10" edge="1">
          <mxGeometry relative="1" as="geometry" />
        </mxCell>
        <mxCell id="t80iUdr_SIEupjNzdLTd-29" style="edgeStyle=orthogonalEdgeStyle;rounded=0;orthogonalLoop=1;jettySize=auto;html=1;exitX=1;exitY=0.75;exitDx=0;exitDy=0;entryX=0;entryY=0.75;entryDx=0;entryDy=0;fillColor=#1ba1e2;strokeColor=#006EAF;dashed=1;dashPattern=8 8;" parent="1" source="t80iUdr_SIEupjNzdLTd-9" target="t80iUdr_SIEupjNzdLTd-10" edge="1">
          <mxGeometry relative="1" as="geometry" />
        </mxCell>
        <mxCell id="t80iUdr_SIEupjNzdLTd-9" value="Automation:&lt;br style=&quot;font-size: 10px;&quot;&gt;Monitor Active Livetracks" style="shape=process;whiteSpace=wrap;html=1;backgroundOutline=1;fontSize=10;" parent="1" vertex="1">
          <mxGeometry x="170" y="320" width="120" height="60" as="geometry" />
        </mxCell>
        <mxCell id="t80iUdr_SIEupjNzdLTd-16" style="edgeStyle=orthogonalEdgeStyle;rounded=0;orthogonalLoop=1;jettySize=auto;html=1;exitX=0.25;exitY=1;exitDx=0;exitDy=0;entryX=0.5;entryY=0;entryDx=0;entryDy=0;" parent="1" source="t80iUdr_SIEupjNzdLTd-10" target="t80iUdr_SIEupjNzdLTd-14" edge="1">
          <mxGeometry relative="1" as="geometry">
            <Array as="points">
              <mxPoint x="444" y="590" />
              <mxPoint x="290" y="590" />
            </Array>
          </mxGeometry>
        </mxCell>
        <mxCell id="t80iUdr_SIEupjNzdLTd-17" style="edgeStyle=orthogonalEdgeStyle;rounded=0;orthogonalLoop=1;jettySize=auto;html=1;exitX=0.75;exitY=1;exitDx=0;exitDy=0;entryX=0.75;entryY=0;entryDx=0;entryDy=0;" parent="1" source="t80iUdr_SIEupjNzdLTd-10" target="t80iUdr_SIEupjNzdLTd-15" edge="1">
          <mxGeometry relative="1" as="geometry">
            <Array as="points">
              <mxPoint x="504" y="590" />
              <mxPoint x="475" y="590" />
            </Array>
          </mxGeometry>
        </mxCell>
        <mxCell id="t80iUdr_SIEupjNzdLTd-10" value="Script:&lt;br&gt;Livetrack Update Livetrack" style="shape=process;whiteSpace=wrap;html=1;backgroundOutline=1;fontSize=10;" parent="1" vertex="1">
          <mxGeometry x="414" y="320" width="120" height="60" as="geometry" />
        </mxCell>
        <mxCell id="t80iUdr_SIEupjNzdLTd-14" value="RESTful&amp;nbsp;sensor:&lt;br&gt;Livetrack Session" style="shape=dataStorage;whiteSpace=wrap;html=1;fixedSize=1;fontSize=10;shadow=1;strokeColor=#7581db;" parent="1" vertex="1">
          <mxGeometry x="240" y="620" width="100" height="80" as="geometry" />
        </mxCell>
        <mxCell id="t80iUdr_SIEupjNzdLTd-20" style="edgeStyle=orthogonalEdgeStyle;rounded=0;orthogonalLoop=1;jettySize=auto;html=1;exitX=0.5;exitY=1;exitDx=0;exitDy=0;" parent="1" source="t80iUdr_SIEupjNzdLTd-15" target="t80iUdr_SIEupjNzdLTd-18" edge="1">
          <mxGeometry relative="1" as="geometry" />
        </mxCell>
        <mxCell id="t80iUdr_SIEupjNzdLTd-15" value="RESTful&amp;nbsp;sensor:&lt;br&gt;Livetrack Trackpoints" style="shape=dataStorage;whiteSpace=wrap;html=1;fixedSize=1;fontSize=10;shadow=1;strokeColor=#7581db;" parent="1" vertex="1">
          <mxGeometry x="400" y="620" width="100" height="80" as="geometry" />
        </mxCell>
        <mxCell id="t80iUdr_SIEupjNzdLTd-22" style="edgeStyle=orthogonalEdgeStyle;rounded=0;orthogonalLoop=1;jettySize=auto;html=1;exitX=1;exitY=0.5;exitDx=0;exitDy=0;exitPerimeter=0;" parent="1" source="t80iUdr_SIEupjNzdLTd-18" target="t80iUdr_SIEupjNzdLTd-21" edge="1">
          <mxGeometry relative="1" as="geometry">
            <mxPoint x="380" y="820" as="sourcePoint" />
          </mxGeometry>
        </mxCell>
        <mxCell id="t80iUdr_SIEupjNzdLTd-18" value="And Same ID" style="shape=or;whiteSpace=wrap;html=1;" parent="1" vertex="1">
          <mxGeometry x="340" y="750" width="60" height="80" as="geometry" />
        </mxCell>
        <mxCell id="t80iUdr_SIEupjNzdLTd-19" style="edgeStyle=orthogonalEdgeStyle;rounded=0;orthogonalLoop=1;jettySize=auto;html=1;exitX=0.5;exitY=1;exitDx=0;exitDy=0;entryX=0.454;entryY=0.058;entryDx=0;entryDy=0;entryPerimeter=0;" parent="1" source="t80iUdr_SIEupjNzdLTd-14" target="t80iUdr_SIEupjNzdLTd-18" edge="1">
          <mxGeometry relative="1" as="geometry" />
        </mxCell>
        <mxCell id="t80iUdr_SIEupjNzdLTd-21" value="Binary sensor&lt;br&gt;Livetrack in progress" style="shape=dataStorage;whiteSpace=wrap;html=1;fixedSize=1;fontSize=10;" parent="1" vertex="1">
          <mxGeometry x="470" y="750" width="100" height="80" as="geometry" />
        </mxCell>
        <mxCell id="t80iUdr_SIEupjNzdLTd-37" style="edgeStyle=orthogonalEdgeStyle;rounded=0;orthogonalLoop=1;jettySize=auto;html=1;exitX=1;exitY=0.5;exitDx=0;exitDy=0;entryX=0;entryY=0.5;entryDx=0;entryDy=0;dashed=1;dashPattern=8 8;fillColor=#1ba1e2;strokeColor=#006EAF;" parent="1" source="t80iUdr_SIEupjNzdLTd-30" target="t80iUdr_SIEupjNzdLTd-34" edge="1">
          <mxGeometry relative="1" as="geometry" />
        </mxCell>
        <mxCell id="t80iUdr_SIEupjNzdLTd-30" value="Livetrack Active URL&lt;br&gt;Input text" style="shape=dataStorage;whiteSpace=wrap;html=1;fixedSize=1;fontSize=10;" parent="1" vertex="1">
          <mxGeometry x="180" y="481" width="100" height="80" as="geometry" />
        </mxCell>
        <mxCell id="t80iUdr_SIEupjNzdLTd-31" style="rounded=0;orthogonalLoop=1;jettySize=auto;html=1;entryX=0.6;entryY=0;entryDx=0;entryDy=0;fillColor=#1ba1e2;strokeColor=#006EAF;dashed=1;dashPattern=8 8;entryPerimeter=0;" parent="1" source="t80iUdr_SIEupjNzdLTd-10" target="t80iUdr_SIEupjNzdLTd-30" edge="1">
          <mxGeometry relative="1" as="geometry">
            <mxPoint x="300" y="375" as="sourcePoint" />
            <mxPoint x="424" y="375" as="targetPoint" />
          </mxGeometry>
        </mxCell>
        <mxCell id="t80iUdr_SIEupjNzdLTd-33" value="Livetrack ID&lt;br&gt;(trigger sensor)" style="shape=parallelogram;html=1;strokeWidth=2;perimeter=parallelogramPerimeter;whiteSpace=wrap;rounded=1;arcSize=12;size=0.23;fontSize=10;" parent="1" vertex="1">
          <mxGeometry x="300" y="190" width="100" height="60" as="geometry" />
        </mxCell>
        <mxCell id="t80iUdr_SIEupjNzdLTd-34" value="Livetrack Active ID&lt;br&gt;(trigger sensor)" style="shape=parallelogram;html=1;strokeWidth=2;perimeter=parallelogramPerimeter;whiteSpace=wrap;rounded=1;arcSize=12;size=0.23;fontSize=10;" parent="1" vertex="1">
          <mxGeometry x="320" y="491" width="100" height="60" as="geometry" />
        </mxCell>
      </root>
    </mxGraphModel>
  </diagram>
</mxfile>
